<svg id="Layer_4" data-name="Layer 4" xmlns="http://www.w3.org/2000/svg" viewBox="0 0 100 100"><defs><style>.cls-1{fill:#004aad;}</style></defs><path class="cls-1" d="M84.29,1H15.71A14.72,14.72,0,0,0,1,15.71V84.29A14.72,14.72,0,0,0,15.71,99H84.29A14.72,14.72,0,0,0,99,84.29V15.71A14.72,14.72,0,0,0,84.29,1Zm1,82.26a2,2,0,0,1-2,2H16.74a2,2,0,0,1-2-2V16.74a2,2,0,0,1,2-2H83.26a2,2,0,0,1,2,2Z"/><polygon class="cls-1" points="43.54 81.02 56.46 81.02 50 74.55 43.54 81.02"/><polygon class="cls-1" points="40.71 40.71 40.71 48.53 48.53 40.71 40.71 40.71"/><polygon class="cls-1" points="55.61 36.71 50 31.1 44.39 36.71 55.61 36.71"/><polygon class="cls-1" points="40.71 21.81 40.71 34.74 47.17 28.27 40.71 21.81"/><rect class="cls-1" x="46.39" y="46.39" width="7.21" height="7.21" transform="translate(-20.71 50) rotate(-45)"/><polygon class="cls-1" points="50 68.9 55.61 63.29 44.39 63.29 50 68.9"/><polygon class="cls-1" points="40.71 51.47 40.71 59.29 48.53 59.29 40.71 51.47"/><rect class="cls-1" x="18.74" y="63.29" width="17.97" height="17.97"/><polygon class="cls-1" points="56.46 18.98 43.54 18.98 50 25.45 56.46 18.98"/><polygon class="cls-1" points="81.02 43.54 74.55 50 81.02 56.46 81.02 43.54"/><polygon class="cls-1" points="63.29 44.39 63.29 55.61 68.9 50 63.29 44.39"/><polygon class="cls-1" points="65.26 59.29 78.19 59.29 71.72 52.83 65.26 59.29"/><polygon class="cls-1" points="71.72 47.17 78.19 40.71 65.26 40.71 71.72 47.17"/><polygon class="cls-1" points="34.74 59.29 28.27 52.83 21.81 59.29 34.74 59.29"/><polygon class="cls-1" points="59.29 59.29 59.29 51.47 51.47 59.29 59.29 59.29"/><polygon class="cls-1" points="59.29 48.53 59.29 40.71 51.47 40.71 59.29 48.53"/><polygon class="cls-1" points="21.81 40.71 28.27 47.17 34.74 40.71 21.81 40.71"/><rect class="cls-1" x="63.29" y="63.29" width="17.97" height="17.97"/><polygon class="cls-1" points="59.29 34.74 59.29 21.81 52.83 28.27 59.29 34.74"/><polygon class="cls-1" points="59.29 78.19 59.29 65.26 52.83 71.72 59.29 78.19"/><polygon class="cls-1" points="18.98 56.46 25.45 50 18.98 43.54 18.98 56.46"/><polygon class="cls-1" points="40.71 65.26 40.71 78.19 47.17 71.72 40.71 65.26"/><rect class="cls-1" x="63.29" y="18.74" width="17.97" height="17.97"/><polygon class="cls-1" points="36.71 55.61 36.71 44.39 31.1 50 36.71 55.61"/><rect class="cls-1" x="18.74" y="18.74" width="17.97" height="17.97"/></svg>