<?xml version="1.0" encoding="utf-8"?>
<!-- Generator: Adobe Illustrator 16.0.0, SVG Export Plug-In . SVG Version: 6.00 Build 0)  -->
<!DOCTYPE svg PUBLIC "-//W3C//DTD SVG 1.1//EN" "http://www.w3.org/Graphics/SVG/1.1/DTD/svg11.dtd">
<svg version="1.1" id="lineal" xmlns="http://www.w3.org/2000/svg" xmlns:xlink="http://www.w3.org/1999/xlink" x="0px" y="0px"
	 width="128px" height="128px" viewBox="0 0 128 128" enable-background="new 0 0 128 128" xml:space="preserve">
<g>
	<path d="M111.49,86.852c-0.19-0.238-0.478-0.377-0.783-0.377h-5.642V37.549c0-3.175-2.583-5.759-5.759-5.759H28.696
		c-3.176,0-5.759,2.583-5.759,5.759v48.925h-5.644c-0.305,0-0.593,0.139-0.783,0.378c-0.189,0.238-0.26,0.55-0.192,0.847
		c0.081,0.348,2.032,8.51,7.916,8.51H64h39.769c5.884,0,7.833-8.162,7.914-8.51C111.75,87.402,111.68,87.091,111.49,86.852z
		 M24.937,37.549c0-2.073,1.687-3.759,3.759-3.759h70.611c2.073,0,3.759,1.686,3.759,3.759v48.925H75.41
		c-0.315,0-0.611,0.148-0.8,0.4l-0.889,1.186H64h-9.718l-0.889-1.186c-0.189-0.252-0.485-0.4-0.8-0.4H24.937V37.549z
		 M103.769,94.209H64H24.234c-3.163,0-4.895-3.736-5.594-5.734h33.453l0.889,1.186c0.189,0.252,0.485,0.4,0.8,0.4H64h10.221
		c0.315,0,0.611-0.148,0.8-0.4l0.889-1.186h33.451C108.662,90.473,106.931,94.209,103.769,94.209z"/>
	<path d="M101.092,84.834V37.042c0-0.552-0.448-1-1-1H27.911c-0.552,0-1,0.448-1,1v47.792c0,0.553,0.448,1,1,1h72.181
		C100.644,85.834,101.092,85.387,101.092,84.834z M99.092,83.834H28.911V38.042h70.181V83.834z"/>
</g>
</svg>
